<!DOCTYPE svg PUBLIC "-//W3C//DTD SVG 20010904//EN" "http://www.w3.org/TR/2001/REC-SVG-20010904/DTD/svg10.dtd">
<svg version="1.0" xmlns="http://www.w3.org/2000/svg" width="125px" height="125px" viewBox="0 0 1250 1250" preserveAspectRatio="xMidYMid meet">
<g id="layer101" fill="#000000" stroke="none">
 <path d="M555 1236 c-17 -7 -43 -28 -58 -45 l-27 -33 0 -181 0 -180 -22 20 c-60 56 -164 47 -230 -19 -25 -25 -47 -38 -65 -38 -45 -1 -111 -36 -133 -72 -17 -28 -20 -50 -20 -149 0 -109 3 -125 49 -284 28 -93 58 -180 69 -194 43 -59 54 -61 435 -61 476 0 457 -11 457 270 l0 171 117 257 c134 296 139 319 84 376 -61 63 -161 68 -229 11 -21 -17 -55 -81 -113 -211 l-84 -186 -5 235 c-5 217 -7 238 -25 263 -44 58 -132 80 -200 50z m119 -77 l26 -20 0 -275 0 -274 64 0 63 0 99 221 c87 196 103 223 130 236 39 19 83 7 103 -29 15 -26 3 -55 -191 -477 l-39 -84 -27 25 c-46 43 -73 51 -185 56 l-108 5 -29 51 -30 51 0 248 c0 234 1 248 20 267 26 26 70 26 104 -1z m-302 -380 c21 -9 146 -219 141 -237 -1 -4 -16 -10 -32 -13 -17 -4 -42 -14 -57 -23 -14 -10 -27 -16 -28 -14 -2 2 -26 47 -55 100 -29 54 -56 100 -62 103 -26 17 -1 73 41 88 23 8 27 8 52 -4z m-169 -111 c29 -30 157 -270 157 -295 0 -25 -27 -49 -62 -58 -40 -10 -69 26 -153 189 l-70 137 28 24 c35 31 71 32 100 3z m617 -214 c14 -10 44 -35 68 -58 l42 -40 0 -128 c0 -120 -1 -128 -22 -142 -19 -14 -71 -16 -358 -16 -253 0 -340 3 -353 13 -14 10 -90 244 -111 342 l-7 30 20 -32 c11 -18 32 -55 46 -83 52 -103 161 -126 254 -53 33 27 38 28 71 16 19 -6 81 -12 138 -12 l102 -1 0 35 0 35 -103 0 c-113 0 -147 13 -147 55 0 46 31 55 190 55 119 0 150 -3 170 -16z"/>
 </g>

</svg>